<?xml version="1.0" encoding="UTF-8"?>
<!DOCTYPE svg PUBLIC "-//W3C//DTD SVG 1.1//EN" "http://www.w3.org/Graphics/SVG/1.1/DTD/svg11.dtd">
<!-- Creator: CorelDRAW 2026 (Versión de evaluación) -->
<svg xmlns="http://www.w3.org/2000/svg" xml:space="preserve" width="139.034mm" height="148.917mm" version="1.1" style="shape-rendering:geometricPrecision; text-rendering:geometricPrecision; image-rendering:optimizeQuality; fill-rule:evenodd; clip-rule:evenodd"
viewBox="0 0 3395.38 3636.73"
 xmlns:xlink="http://www.w3.org/1999/xlink"
 xmlns:xodm="http://www.corel.com/coreldraw/odm/2003">
 <defs>
  <style type="text/css">
   <![CDATA[
    .fil1 {fill:#3DB54D}
    .fil0 {fill:#008548}
   ]]>
  </style>
 </defs>
 <g id="Layer_x0020_1">
  <metadata id="CorelCorpID_0Corel-Layer"/>
  <path class="fil0" d="M604.74 3591.4c69.49,-3.02 125.57,5.72 729.75,5.2 604.18,-0.53 865.6,-53.17 1125.01,-184.78 1262.65,-636.24 1276.07,-2707.11 -133.13,-3313.72 -228.31,-98.28 -962.08,-98.1 -1324.36,-98.1l-998.9 0 -3.09 2594.23c295.09,-640.58 767.08,-425.17 791.59,-702.18l3.47 -1034.46c-7.63,-98.06 52.24,-134.38 158.58,-128.17 204,0 525.62,-5.65 882.43,6.64 1093.74,380.33 1016.44,1794.99 31.85,2076.31 -334.75,95.65 -543.14,-28.64 -914.28,156.29 -259.28,129.2 -424.54,399.18 -467.85,505.49 -43.31,106.31 49.46,120.26 118.95,117.24z"/>
  <path class="fil1" d="M2014.92 2378.31c-433.91,397.39 -1410.02,220.69 -1983.11,1258.42 -130.99,-1971.09 1745.69,-1168.87 1983.11,-1258.42z"/>
 </g>
</svg>
